<svg height="137.161" width="70" xmlns="http://www.w3.org/2000/svg"><path d="m-79.024249 565.28621c-1.24196-.6569-2.40637-1.829-2.84317-2.862-.19308-.4566-2.66604-14.5841-5.49549-31.3945-5.68475-33.7743-5.45935-31.7352-3.72594-33.7094.48732-.5551.75992-1.1073.6666-1.3505-.36459-.9501-9.31769-55.2361-9.31769-56.4967 0-2.3644 1.68222-4.3997 4.30563-5.2091 1.97851-.6104 35.92746-5.7427 37.20179-5.624 1.80606.1683 3.64942 1.3738 4.42134 2.8916.48729.9582 1.4049 5.9577 4.42872 24.1291 3.45601 20.7688 3.78065 23.0013 3.45806 23.7801-.65088 1.5713-2.74084 2.3203-4.27493 1.5319-1.44674-.7435-1.52175-1.045-4.06655-16.344-1.72088-10.3456-2.60448-15.0081-2.99948-15.8274-.33434-.6935-.99784-1.4513-1.64676-1.8807-1.83128-1.2119-3.39651-1.1271-16.20504.8779-9.29067 1.4543-11.55615 1.8929-12.72876 2.4641-1.69212.8243-2.7488 2.2457-2.94168 3.957-.0879.7795.96968 7.7894 3.15722 20.9276 1.80914 10.8655 3.33054 19.8 3.38088 19.8546.0504.054 8.72543-1.2478 19.27797-2.8941s19.6932-2.9927 20.31259-2.992c1.96237 0 3.64492 1.0158 4.54463 2.7377.20639.3951 2.68138 14.551 5.49998 31.4578 5.08502 30.5014 5.12161 30.7502 4.72407 32.1176-.44365 1.5262-1.68867 2.9933-3.01216 3.5495-1.09906.462-42.04994 6.8362-43.81883 6.8207-.78244-.01-1.75658-.2238-2.303-.5128zm23.48488-6.7046c7.09373-1.0976 7.73601-1.3202 7.73601-2.6807 0-1.0168-.73307-1.6614-1.88945-1.6614-1.82043 0-13.30328 1.9031-13.92026 2.307-1.23243.8069-.48844 3.0873 1.00173 3.0704.22608 0 3.40846-.4685 7.07197-1.0353zm-4.44138-25.2923c1.66476-.2679 3.08341-.5437 3.15254-.6128.0691-.069-.22289-2.1785-.64895-4.6874l-.77467-4.5617 1.19474-1.0361c2.02973-1.7602 2.74777-3.9128 2.24388-6.727-1.36033-7.5971-11.84337-9.0601-15.23582-2.1262-.8634 1.7647-.98453 4.3705-.28069 6.0383.51734 1.226 2.34912 3.2461 3.65462 4.0305.53707.3227 1.01223.6115 1.0559.6418.0588.041 1.64829 9.0741 1.66665 9.4718.007.15 1.09369.032 3.9718-.4312zm-15.47648-92.2165c3.30614-.4966 3.97294-.8563 3.97294-2.1433 0-.7013-.16982-1.0407-.69196-1.3828-.6479-.4245-.88348-.4248-3.70014 0-2.58184.3849-3.094.5458-3.61366 1.1349-.77466.8782-.76307 1.3306.055 2.1487.78115.7811.52828.7654 3.97778.2473z" fill="#00bcf2" transform="translate(99.74 -428.638)"/></svg>